<?xml version="1.0" encoding="UTF-8"?>
<svg width="128px" height="128px" viewBox="0 0 128 128" version="1.1" xmlns="http://www.w3.org/2000/svg" xmlns:xlink="http://www.w3.org/1999/xlink">
    <title>logo-蓝色底-2备份 8</title>
    <g id="logo-蓝色底-2备份-8" stroke="none" stroke-width="1" fill="none" fill-rule="evenodd">
        <rect id="矩形" fill="#FFFFFF" x="0" y="0" width="128" height="128" rx="24"></rect>
        <path d="M64,23 L81,23 C95.9116882,23 108,35.0883118 108,50 L108,77 C108,91.9116882 95.9116882,104 81,104 L64,104 L64,104 L64,23 Z" id="矩形" fill="#0059FF"></path>
        <path d="M20,23 L37,23 C51.9116882,23 64,35.0883118 64,50 L64,107.702913 C64,109.912052 62.209139,111.702913 60,111.702913 C59.4123391,111.702913 58.8318966,111.573427 58.2999532,111.323664 L48.1541713,106.559928 C44.5635528,104.874029 40.6455659,104 36.6788551,104 L20,104 L20,104 L20,23 Z" id="矩形备份-4" fill="#00D6AA" transform="translate(42, 68.5) scale(-1, 1) translate(-42, -68.5)"></path>
        <path d="M64.8516118,41.2051078 C68.5498087,37.1032565 74.8729971,36.7760299 78.9748484,40.4742268 C83.0766997,44.1724238 83.4039263,50.4956122 79.7057294,54.5974635 C79.5582181,54.7610755 79.436931,54.8956009 79.3185577,55.0268945 L79.2299598,55.1251628 L79.1402693,55.2246429 C78.7309254,55.6786663 78.2220114,56.2431278 76.717396,57.9119704 L76.3662826,58.3014074 C76.1207946,58.5736901 75.8519963,58.8718276 75.5569736,59.1990517 C73.6208876,61.3464595 72.5883084,62.4917436 71.5316357,63.6637511 L71.2282723,64.0002263 C70.1076598,65.2431525 68.8636477,66.6229472 66.429711,69.3225456 C61.4512041,74.8444515 61.4512041,74.8444515 57.3024483,79.4460396 L56.8792183,79.9154648 C54.6556218,82.3817645 54.1177519,82.9783424 53.6294621,83.5199285 L53.5408642,83.6181967 L53.4511737,83.7176769 C53.3602084,83.818571 53.2643261,83.9249188 53.1536926,84.0476278 C49.4554957,88.1494791 43.1323072,88.4767057 39.0304559,84.7785087 C34.9286046,81.0803118 34.6013781,74.7571234 38.299575,70.6552721 C38.4470863,70.4916601 38.5683734,70.3571346 38.6867467,70.225841 L38.7753445,70.1275728 L38.865035,70.0280927 C39.3653443,69.4731752 40.014394,68.7532823 42.4483308,66.0536839 C44.2922222,64.0085336 45.3166063,62.872339 46.3227792,61.7563434 L46.624886,61.421262 C47.7870111,60.1322921 49.0310232,58.7524974 51.5755934,55.9301899 C56.5541003,50.4082841 56.5541003,50.4082841 60.7028561,45.806696 L61.126086,45.3372708 C63.3496825,42.8709711 63.8875525,42.2743931 64.3758423,41.7328071 L64.4644401,41.6345388 L64.5541306,41.5350587 C64.645096,41.4341646 64.7409783,41.3278168 64.8516118,41.2051078 Z" id="路径-5" fill="#FFFFFF" fill-rule="nonzero"></path>
        <path d="M79.8074526,69.35145 C85.3303001,69.35145 89.8074526,73.8286025 89.8074526,79.35145 C89.8074526,84.8742975 85.3303001,89.35145 79.8074526,89.35145 L75.1267167,89.35145 C69.6038692,89.35145 65.1267167,84.8742975 65.1267167,79.35145 C65.1267167,73.8286025 69.6038692,69.35145 75.1267167,69.35145 L79.8074526,69.35145 Z" id="路径-7" fill="#FFFFFF" fill-rule="nonzero"></path>
    </g>
</svg>