<?xml version="1.0" encoding="UTF-8"?>
<svg width="70px" height="24px" viewBox="0 0 70 24" version="1.1" xmlns="http://www.w3.org/2000/svg" xmlns:xlink="http://www.w3.org/1999/xlink">
    <title>形状结合</title>
    <g id="页面-1" stroke="none" stroke-width="1" fill="none" fill-rule="evenodd">
        <g id="编组-10" transform="translate(-58.000000, -24.000000)" fill="#1177FF">
            <path d="M125.382889,38.5586989 L128,38.5586989 L128,32.7110617 L125.382889,32.7110617 L125.382889,38.5586989 Z M119.321006,41.7368086 L121.938118,41.7368086 L121.938118,29.5966571 L119.321006,29.5966571 L119.321006,41.7368086 Z M107.26105,40.7795084 L109.878162,40.7795084 L109.878162,30.689182 L107.26105,30.689182 L107.26105,40.7795084 Z M113.322933,47.3333333 L115.940044,47.3333333 L115.940044,24 L113.322933,24 L113.322933,47.3333333 Z M100.963871,44.8318765 L103.551072,44.8318765 L103.551072,27.751192 L100.963871,27.751192 L100.963871,44.8318765 Z M87.9279924,38.2606484 L90.5929607,32.4527442 L93.135628,38.2606484 L87.9279924,38.2606484 Z M95.9893655,44.8318235 L98.8207698,44.8318235 L90.6373614,26.6780833 L82.1540493,44.8318235 L84.9410529,44.8318235 L86.8509447,40.683434 L94.1906082,40.683434 L95.9893655,44.8318235 Z M79.2448775,26.4788885 L79.2448775,40.0638642 L81.065835,40.0638642 L81.065835,42.4091704 L79.2448775,42.4091704 L79.2448775,44.8318235 L76.6576766,44.8318235 L76.6576766,42.4091704 L68.2409655,42.4091704 L79.2448775,26.4788885 Z M64.2372251,25.1458201 C65.9408002,25.1458201 67.422505,25.7471127 68.6820738,26.9495656 C69.9416426,28.1442043 70.5713605,29.5549905 70.5713605,31.1823215 C70.5713605,32.6252914 69.9577279,34.1845465 68.7304625,35.8599544 L62.2026393,44.6621371 L58.8585008,44.6621371 L64.6005392,37.086512 C64.3583298,37.1186957 64.1525448,37.1426679 63.9829185,37.1586936 C63.8134251,37.1748517 63.6759692,37.1826658 63.5712156,37.1826658 C62.0611954,37.1826658 60.7532379,36.6095836 59.6470773,35.4631543 C58.5490258,34.3249364 58,32.9541481 58,31.3506569 C58,29.6431977 58.6095116,28.1842022 59.8288008,26.9736703 C61.0559332,25.7551918 62.525408,25.1458201 64.2372251,25.1458201 Z M76.6576766,34.3444321 L72.7046912,40.0638642 L76.6576766,40.0638642 L76.6576766,34.3444321 Z M64.2735166,27.6831691 C63.3046789,27.6831691 62.4770193,28.0239458 61.7908035,28.7052342 C61.0963458,29.3947341 60.7492498,30.2083333 60.7492498,31.1462969 C60.7492498,32.1484954 61.0923577,32.9901727 61.7787063,33.6714611 C62.4730312,34.360961 63.308667,34.7055785 64.2857467,34.7055785 C65.2625606,34.7055785 66.0942083,34.3649343 66.780557,33.6835135 C67.4748818,32.994146 67.8221107,32.1643886 67.8221107,31.1943738 C67.8221107,30.2244914 67.4748818,29.3947341 66.780557,28.7052342 C66.0942083,28.0239458 65.2585725,27.6831691 64.2735166,27.6831691 Z" id="形状结合"></path>
        </g>
    </g>
</svg>