<svg t="1694577321650" class="icon" viewBox="0 0 1024 1024" version="1.1" xmlns="http://www.w3.org/2000/svg" p-id="7159" width="200" height="200"><path d="M512 27.306667a268.4928 268.4928 0 0 1 268.4928 268.4928V436.906667L853.333333 436.906667a109.226667 109.226667 0 0 1 108.7488 99.259733L962.56 546.133333v364.066134a109.226667 109.226667 0 0 1-109.226667 109.226666H170.666667a109.226667 109.226667 0 0 1-109.226667-109.226666V546.133333A109.226667 109.226667 0 0 1 170.666667 436.906667l72.772266-0.068267V295.799467A268.4928 268.4928 0 0 1 512 27.306667z m341.333333 491.52H170.666667a27.306667 27.306667 0 0 0-27.306667 27.306666v364.066134c0 15.086933 12.288 27.306667 27.306667 27.306666h682.666666a27.306667 27.306667 0 0 0 27.306667-27.306666V546.133333a27.306667 27.306667 0 0 0-27.306667-27.306666z m-341.333333-409.6a186.5728 186.5728 0 0 0-186.5728 186.5728L325.358933 436.906667h373.213867V295.799467A186.5728 186.5728 0 0 0 512 109.226667z" fill="#000000" fill-opacity=".5" p-id="7160"></path><path d="M512 618.973867a40.96 40.96 0 0 1 40.96 40.96v136.533333a40.96 40.96 0 0 1-81.92 0v-136.533333a40.96 40.96 0 0 1 40.96-40.96z" fill="#1485EC" p-id="7161"></path></svg>