<svg t="1695030027044" class="icon" viewBox="0 0 1024 1024" version="1.1" xmlns="http://www.w3.org/2000/svg" p-id="8268" width="200" height="200"><path d="M896 810.6496c0 23.552-19.0976 42.7008-42.6496 42.7008H170.6496a42.6496 42.6496 0 0 1 0-85.3504h682.7008c23.552 0 42.6496 19.0976 42.6496 42.6496z m0-298.6496c0 23.552-19.0976 42.6496-42.6496 42.6496h-298.7008a42.6496 42.6496 0 1 1 0-85.2992h298.7008c23.552 0 42.6496 19.0976 42.6496 42.6496z m0-298.6496c0 23.552-19.0976 42.6496-42.6496 42.6496h-298.7008a42.6496 42.6496 0 1 1 0-85.3504h298.7008c23.552 0 42.6496 19.0976 42.6496 42.7008z" fill="#000000" fill-opacity=".8" p-id="8269"></path><path d="M311.6032 196.7104a42.6496 42.6496 0 0 1 0 60.3648L205.9776 362.6496l105.6256 105.6256a42.6496 42.6496 0 0 1-60.3648 60.3136L121.5488 398.848a51.2 51.2 0 0 1 0-72.3968l129.6896-129.7408a42.6496 42.6496 0 0 1 60.3648 0z" fill="#1177FF" p-id="8270"></path></svg>