<svg t="1694577360484" class="icon" viewBox="0 0 1024 1024" version="1.1" xmlns="http://www.w3.org/2000/svg" p-id="7295" width="200" height="200"><path d="M501.44 27.136L117.248 139.264a38.4 38.4 0 0 0-27.648 36.864v229.76a599.936 599.936 0 0 0 410.304 569.216 38.4 38.4 0 0 0 24.32 0A599.808 599.808 0 0 0 934.4 406.08V176.128a38.4 38.4 0 0 0-27.648-36.864L522.944 27.136a38.4 38.4 0 0 0-21.504 0z m10.688 76.8L857.6 204.864v201.216l-0.32 17.664a523.008 523.008 0 0 1-340.672 472.64L512 897.92l-4.48-1.536A523.136 523.136 0 0 1 166.4 405.952V204.8l345.728-100.928z" fill="#000000" fill-opacity=".5" p-id="7296"></path><path d="M698.24 335.488a38.4 38.4 0 1 1 54.272 54.336l-256 256a38.4 38.4 0 0 1-54.336 0L292.864 496.512a38.4 38.4 0 0 1 54.272-54.336l122.176 122.176 228.864-228.864z" fill="#1485EC" p-id="7297"></path></svg>