<svg t="1694577720539" class="icon" viewBox="0 0 1024 1024" version="1.1" xmlns="http://www.w3.org/2000/svg" p-id="7567" width="200" height="200"><path d="M512 29.257143a214.528 214.528 0 1 0 0 429.129143A214.528 214.528 0 0 0 512 29.257143z m0 87.771428a126.756571 126.756571 0 1 1 0 253.586286A126.756571 126.756571 0 0 1 512 117.028571z" fill="#1485EC" p-id="7568"></path><path d="M677.449143 565.686857H346.697143l-36.425143 0.365714c-78.482286 1.389714-114.322286 7.168-150.674286 25.6A238.957714 238.957714 0 0 0 55.369143 696.100571c-21.138286 41.472-25.6 82.432-25.965714 186.88L29.257143 950.857143a43.885714 43.885714 0 0 0 43.885714 43.885714h877.714286a43.885714 43.885714 0 0 0 43.885714-43.885714l-0.365714-95.670857c-1.243429-91.282286-6.509714-121.417143-25.673143-159.085715a238.957714 238.957714 0 0 0-104.448-104.448c-41.398857-21.065143-82.432-25.6-186.806857-25.965714z m-330.605714 87.771429h330.24l31.232 0.292571c66.925714 1.024 94.646857 5.12 116.150857 16.091429 28.379429 14.555429 51.565714 37.668571 66.048 66.121143l1.901714 3.949714 3.584 8.777143c7.021714 19.821714 9.728 46.957714 10.605714 107.666285l0.292572 50.614858H117.028571v-23.844572c0.365714-89.965714 3.949714-122.587429 16.457143-147.163428 14.482286-28.525714 37.668571-51.565714 66.048-66.048 24.576-12.580571 57.270857-16.091429 147.382857-16.457143z" fill="#000000" fill-opacity=".5" p-id="7569"></path></svg>